<mxfile host="Electron" agent="Mozilla/5.0 (Windows NT 10.0; Win64; x64) AppleWebKit/537.36 (KHTML, like Gecko) draw.io/24.7.17 Chrome/128.0.6613.36 Electron/32.0.1 Safari/537.36" version="24.7.17">
  <diagram name="Страница — 1" id="v5nz3g7epLpUzM4lQFON">
    <mxGraphModel dx="1276" dy="606" grid="1" gridSize="10" guides="1" tooltips="1" connect="1" arrows="1" fold="1" page="1" pageScale="1" pageWidth="827" pageHeight="1169" math="0" shadow="0">
      <root>
        <mxCell id="0" />
        <mxCell id="1" parent="0" />
        <mxCell id="CMJUXitTKsFkkp1Q_FfW-338" value="Начало" style="ellipse;whiteSpace=wrap;html=1;" vertex="1" parent="1">
          <mxGeometry x="350" y="10" width="80" height="40" as="geometry" />
        </mxCell>
        <mxCell id="CMJUXitTKsFkkp1Q_FfW-339" value="" style="endArrow=classic;html=1;rounded=0;" edge="1" parent="1">
          <mxGeometry width="50" height="50" relative="1" as="geometry">
            <mxPoint x="389.5" y="50" as="sourcePoint" />
            <mxPoint x="389.5" y="90" as="targetPoint" />
          </mxGeometry>
        </mxCell>
        <mxCell id="CMJUXitTKsFkkp1Q_FfW-340" value="" style="endArrow=none;dashed=1;html=1;rounded=0;" edge="1" parent="1">
          <mxGeometry width="50" height="50" relative="1" as="geometry">
            <mxPoint x="389" y="60" as="sourcePoint" />
            <mxPoint x="460" y="60" as="targetPoint" />
          </mxGeometry>
        </mxCell>
        <mxCell id="CMJUXitTKsFkkp1Q_FfW-341" value="#include&amp;lt;iostream&amp;gt;&lt;div&gt;#include&amp;lt;clocale&amp;gt;&lt;br&gt;&lt;/div&gt;&lt;div&gt;#include&amp;lt;math.h&amp;gt;&lt;br&gt;&lt;/div&gt;&lt;div&gt;using namespace std;&lt;/div&gt;&lt;div&gt;double x1,x2,x3,e,p,k&lt;/div&gt;" style="strokeWidth=2;html=1;shape=mxgraph.flowchart.annotation_1;align=left;pointerEvents=1;" vertex="1" parent="1">
          <mxGeometry x="460" y="30" width="10" height="70" as="geometry" />
        </mxCell>
        <mxCell id="CMJUXitTKsFkkp1Q_FfW-343" value="int main()" style="shape=process;whiteSpace=wrap;html=1;backgroundOutline=1;" vertex="1" parent="1">
          <mxGeometry x="350" y="90" width="80" height="30" as="geometry" />
        </mxCell>
        <mxCell id="CMJUXitTKsFkkp1Q_FfW-344" value="setlocale(LC_ALL&quot;&#39;RUS&quot;;" style="rounded=0;whiteSpace=wrap;html=1;" vertex="1" parent="1">
          <mxGeometry x="317.5" y="150" width="145" height="40" as="geometry" />
        </mxCell>
        <mxCell id="CMJUXitTKsFkkp1Q_FfW-345" value="" style="endArrow=classic;html=1;rounded=0;" edge="1" parent="1">
          <mxGeometry width="50" height="50" relative="1" as="geometry">
            <mxPoint x="389.5" y="120" as="sourcePoint" />
            <mxPoint x="389.5" y="150" as="targetPoint" />
          </mxGeometry>
        </mxCell>
        <mxCell id="CMJUXitTKsFkkp1Q_FfW-346" value="" style="endArrow=classic;html=1;rounded=0;" edge="1" parent="1">
          <mxGeometry width="50" height="50" relative="1" as="geometry">
            <mxPoint x="389.5" y="190" as="sourcePoint" />
            <mxPoint x="389.5" y="210" as="targetPoint" />
          </mxGeometry>
        </mxCell>
        <mxCell id="CMJUXitTKsFkkp1Q_FfW-347" value="cout&amp;lt;&amp;lt;&quot;Введите точность&quot;&amp;lt;&amp;lt;endl;" style="shape=parallelogram;perimeter=parallelogramPerimeter;whiteSpace=wrap;html=1;fixedSize=1;" vertex="1" parent="1">
          <mxGeometry x="325" y="210" width="130" height="40" as="geometry" />
        </mxCell>
        <mxCell id="CMJUXitTKsFkkp1Q_FfW-348" value="cin&amp;gt;&amp;gt;e;" style="shape=parallelogram;perimeter=parallelogramPerimeter;whiteSpace=wrap;html=1;fixedSize=1;" vertex="1" parent="1">
          <mxGeometry x="325" y="270" width="130" height="40" as="geometry" />
        </mxCell>
        <mxCell id="CMJUXitTKsFkkp1Q_FfW-349" value="" style="endArrow=classic;html=1;rounded=0;" edge="1" parent="1">
          <mxGeometry width="50" height="50" relative="1" as="geometry">
            <mxPoint x="389.5" y="250" as="sourcePoint" />
            <mxPoint x="389.5" y="270" as="targetPoint" />
          </mxGeometry>
        </mxCell>
        <mxCell id="CMJUXitTKsFkkp1Q_FfW-350" value="" style="endArrow=classic;html=1;rounded=0;" edge="1" parent="1">
          <mxGeometry width="50" height="50" relative="1" as="geometry">
            <mxPoint x="389.5" y="310" as="sourcePoint" />
            <mxPoint x="389.5" y="330" as="targetPoint" />
          </mxGeometry>
        </mxCell>
        <mxCell id="CMJUXitTKsFkkp1Q_FfW-351" value="x1=1;" style="rounded=0;whiteSpace=wrap;html=1;" vertex="1" parent="1">
          <mxGeometry x="355" y="330" width="70" height="30" as="geometry" />
        </mxCell>
        <mxCell id="CMJUXitTKsFkkp1Q_FfW-352" value="x2=2;" style="rounded=0;whiteSpace=wrap;html=1;" vertex="1" parent="1">
          <mxGeometry x="355" y="380" width="70" height="30" as="geometry" />
        </mxCell>
        <mxCell id="CMJUXitTKsFkkp1Q_FfW-353" value="k=0;" style="rounded=0;whiteSpace=wrap;html=1;" vertex="1" parent="1">
          <mxGeometry x="355" y="430" width="70" height="30" as="geometry" />
        </mxCell>
        <mxCell id="CMJUXitTKsFkkp1Q_FfW-354" value="" style="endArrow=classic;html=1;rounded=0;" edge="1" parent="1">
          <mxGeometry width="50" height="50" relative="1" as="geometry">
            <mxPoint x="389.5" y="360" as="sourcePoint" />
            <mxPoint x="389.5" y="380" as="targetPoint" />
          </mxGeometry>
        </mxCell>
        <mxCell id="CMJUXitTKsFkkp1Q_FfW-355" value="" style="endArrow=classic;html=1;rounded=0;" edge="1" parent="1">
          <mxGeometry width="50" height="50" relative="1" as="geometry">
            <mxPoint x="389.5" y="410" as="sourcePoint" />
            <mxPoint x="389.5" y="430" as="targetPoint" />
          </mxGeometry>
        </mxCell>
        <mxCell id="CMJUXitTKsFkkp1Q_FfW-356" value="" style="endArrow=classic;html=1;rounded=0;" edge="1" parent="1">
          <mxGeometry width="50" height="50" relative="1" as="geometry">
            <mxPoint x="389.5" y="460" as="sourcePoint" />
            <mxPoint x="389.5" y="480" as="targetPoint" />
          </mxGeometry>
        </mxCell>
        <mxCell id="CMJUXitTKsFkkp1Q_FfW-357" value="p=abs(x1-x2);" style="rounded=0;whiteSpace=wrap;html=1;" vertex="1" parent="1">
          <mxGeometry x="347.5" y="480" width="85" height="30" as="geometry" />
        </mxCell>
        <mxCell id="CMJUXitTKsFkkp1Q_FfW-358" value="while p&amp;gt;e" style="rhombus;whiteSpace=wrap;html=1;" vertex="1" parent="1">
          <mxGeometry x="330" y="530" width="120" height="60" as="geometry" />
        </mxCell>
        <mxCell id="CMJUXitTKsFkkp1Q_FfW-359" value="" style="endArrow=classic;html=1;rounded=0;" edge="1" parent="1">
          <mxGeometry width="50" height="50" relative="1" as="geometry">
            <mxPoint x="389.5" y="510" as="sourcePoint" />
            <mxPoint x="389.5" y="530" as="targetPoint" />
          </mxGeometry>
        </mxCell>
        <mxCell id="CMJUXitTKsFkkp1Q_FfW-361" value="" style="endArrow=classic;html=1;rounded=0;" edge="1" parent="1">
          <mxGeometry width="50" height="50" relative="1" as="geometry">
            <mxPoint x="389.5" y="590" as="sourcePoint" />
            <mxPoint x="390" y="610" as="targetPoint" />
          </mxGeometry>
        </mxCell>
        <mxCell id="CMJUXitTKsFkkp1Q_FfW-362" value="1" style="text;html=1;align=center;verticalAlign=middle;resizable=0;points=[];autosize=1;strokeColor=none;fillColor=none;" vertex="1" parent="1">
          <mxGeometry x="384" y="585" width="30" height="30" as="geometry" />
        </mxCell>
        <mxCell id="CMJUXitTKsFkkp1Q_FfW-363" value="x3=x2;" style="rounded=0;whiteSpace=wrap;html=1;" vertex="1" parent="1">
          <mxGeometry x="355" y="610" width="70" height="30" as="geometry" />
        </mxCell>
        <mxCell id="CMJUXitTKsFkkp1Q_FfW-364" value="" style="endArrow=classic;html=1;rounded=0;" edge="1" parent="1">
          <mxGeometry width="50" height="50" relative="1" as="geometry">
            <mxPoint x="389.5" y="640" as="sourcePoint" />
            <mxPoint x="389.5" y="660" as="targetPoint" />
          </mxGeometry>
        </mxCell>
        <mxCell id="CMJUXitTKsFkkp1Q_FfW-365" value="x1 = x2 - ((0.1 * pow(x2,2) - x2 * log(x2)) / (0.2 * x2 - 1 - log(x2)));" style="rounded=0;whiteSpace=wrap;html=1;" vertex="1" parent="1">
          <mxGeometry x="292.5" y="660" width="195" height="30" as="geometry" />
        </mxCell>
        <mxCell id="CMJUXitTKsFkkp1Q_FfW-366" value="" style="endArrow=classic;html=1;rounded=0;" edge="1" parent="1">
          <mxGeometry width="50" height="50" relative="1" as="geometry">
            <mxPoint x="389.5" y="690" as="sourcePoint" />
            <mxPoint x="389.5" y="710" as="targetPoint" />
          </mxGeometry>
        </mxCell>
        <mxCell id="CMJUXitTKsFkkp1Q_FfW-367" value="x2=x1;" style="rounded=0;whiteSpace=wrap;html=1;" vertex="1" parent="1">
          <mxGeometry x="355" y="710" width="70" height="30" as="geometry" />
        </mxCell>
        <mxCell id="CMJUXitTKsFkkp1Q_FfW-368" value="k++;" style="rounded=0;whiteSpace=wrap;html=1;" vertex="1" parent="1">
          <mxGeometry x="355" y="760" width="70" height="30" as="geometry" />
        </mxCell>
        <mxCell id="CMJUXitTKsFkkp1Q_FfW-369" value="p=abs(x3-x2);" style="rounded=0;whiteSpace=wrap;html=1;" vertex="1" parent="1">
          <mxGeometry x="345" y="810" width="90" height="30" as="geometry" />
        </mxCell>
        <mxCell id="CMJUXitTKsFkkp1Q_FfW-370" value="" style="endArrow=classic;html=1;rounded=0;" edge="1" parent="1">
          <mxGeometry width="50" height="50" relative="1" as="geometry">
            <mxPoint x="389.5" y="740" as="sourcePoint" />
            <mxPoint x="389.5" y="760" as="targetPoint" />
          </mxGeometry>
        </mxCell>
        <mxCell id="CMJUXitTKsFkkp1Q_FfW-371" value="" style="endArrow=classic;html=1;rounded=0;" edge="1" parent="1">
          <mxGeometry width="50" height="50" relative="1" as="geometry">
            <mxPoint x="389.5" y="790" as="sourcePoint" />
            <mxPoint x="389.5" y="810" as="targetPoint" />
          </mxGeometry>
        </mxCell>
        <mxCell id="CMJUXitTKsFkkp1Q_FfW-372" value="" style="endArrow=classic;html=1;rounded=0;entryX=0;entryY=0.5;entryDx=0;entryDy=0;" edge="1" parent="1" target="CMJUXitTKsFkkp1Q_FfW-358">
          <mxGeometry width="50" height="50" relative="1" as="geometry">
            <mxPoint x="389.5" y="840" as="sourcePoint" />
            <mxPoint x="260" y="560" as="targetPoint" />
            <Array as="points">
              <mxPoint x="390" y="870" />
              <mxPoint x="240" y="870" />
              <mxPoint x="240" y="720" />
              <mxPoint x="240" y="560" />
            </Array>
          </mxGeometry>
        </mxCell>
        <mxCell id="CMJUXitTKsFkkp1Q_FfW-373" value="" style="endArrow=classic;html=1;rounded=0;" edge="1" parent="1" target="CMJUXitTKsFkkp1Q_FfW-375">
          <mxGeometry width="50" height="50" relative="1" as="geometry">
            <mxPoint x="450" y="560" as="sourcePoint" />
            <mxPoint x="390" y="940" as="targetPoint" />
            <Array as="points">
              <mxPoint x="520" y="560" />
              <mxPoint x="520" y="900" />
              <mxPoint x="390" y="900" />
            </Array>
          </mxGeometry>
        </mxCell>
        <mxCell id="CMJUXitTKsFkkp1Q_FfW-374" value="0" style="text;html=1;align=center;verticalAlign=middle;resizable=0;points=[];autosize=1;strokeColor=none;fillColor=none;" vertex="1" parent="1">
          <mxGeometry x="470" y="530" width="30" height="30" as="geometry" />
        </mxCell>
        <mxCell id="CMJUXitTKsFkkp1Q_FfW-375" value="cout&amp;lt;&amp;lt;&quot;корень&quot;&amp;lt;&amp;lt;x1&amp;lt;&amp;lt;endl;" style="shape=parallelogram;perimeter=parallelogramPerimeter;whiteSpace=wrap;html=1;fixedSize=1;" vertex="1" parent="1">
          <mxGeometry x="325" y="920" width="135" height="40" as="geometry" />
        </mxCell>
        <mxCell id="CMJUXitTKsFkkp1Q_FfW-376" value="cout&amp;lt;&amp;lt;&quot;кол-во итераций&quot;&amp;lt;&amp;lt;k&amp;lt;&amp;lt;endl;" style="shape=parallelogram;perimeter=parallelogramPerimeter;whiteSpace=wrap;html=1;fixedSize=1;" vertex="1" parent="1">
          <mxGeometry x="297.5" y="980" width="172.5" height="40" as="geometry" />
        </mxCell>
        <mxCell id="CMJUXitTKsFkkp1Q_FfW-377" value="" style="endArrow=classic;html=1;rounded=0;" edge="1" parent="1">
          <mxGeometry width="50" height="50" relative="1" as="geometry">
            <mxPoint x="389.5" y="960" as="sourcePoint" />
            <mxPoint x="389.5" y="980" as="targetPoint" />
          </mxGeometry>
        </mxCell>
        <mxCell id="CMJUXitTKsFkkp1Q_FfW-378" value="" style="endArrow=classic;html=1;rounded=0;" edge="1" parent="1">
          <mxGeometry width="50" height="50" relative="1" as="geometry">
            <mxPoint x="389.5" y="1020" as="sourcePoint" />
            <mxPoint x="389.5" y="1040" as="targetPoint" />
          </mxGeometry>
        </mxCell>
        <mxCell id="CMJUXitTKsFkkp1Q_FfW-380" value="return0;" style="ellipse;whiteSpace=wrap;html=1;" vertex="1" parent="1">
          <mxGeometry x="343.75" y="1040" width="92.5" height="40" as="geometry" />
        </mxCell>
      </root>
    </mxGraphModel>
  </diagram>
</mxfile>
